<svg width="120" height="40" viewBox="0 0 120 40" fill="none" xmlns="http://www.w3.org/2000/svg">
  <rect width="40" height="40" rx="8" fill="#0066FF"/>
  <path d="M20 10L30 30H10L20 10Z" fill="white"/>
  <path d="M48 25V15H50.6L55 22.5L59.4 15H62V25H59.6V19L56 25H54L50.4 19V25H48Z" fill="#1E293B"/>
  <path d="M64 25V15H71.5C72.3 15 73 15.2 73.6 15.6C74.2 16 74.6 16.5 74.9 17.1C75.2 17.7 75.35 18.3 75.35 19C75.35 19.7 75.2 20.3 74.9 20.9C74.6 21.5 74.2 22 73.6 22.4C73 22.8 72.3 23 71.5 23H66.4V25H64ZM66.4 20.8H71.2C71.6 20.8 71.95 20.7 72.25 20.5C72.55 20.3 72.75 20.05 72.9 19.75C73.05 19.45 73.1 19.2 73.1 18.9C73.1 18.6 73.05 18.35 72.9 18.05C72.75 17.75 72.55 17.5 72.25 17.3C71.95 17.1 71.6 17 71.2 17H66.4V20.8Z" fill="#1E293B"/>
  <path d="M78 25V15H86.5V17H80.4V19H85.5V21H80.4V23H86.5V25H78Z" fill="#1E293B"/>
  <path d="M88 25V15H90.6L95 22.5L99.4 15H102V25H99.6V19L96 25H94L90.4 19V25H88Z" fill="#1E293B"/>
  <path d="M104 25V15H106.6V23H112.5V25H104Z" fill="#1E293B"/>
</svg> 